<svg width="20" height="21" viewBox="0 0 20 21" fill="none" xmlns="http://www.w3.org/2000/svg">
<path d="M7.5498 5.5542C7.5498 4.72577 8.22137 4.0542 9.0498 4.0542H14.5498C15.3782 4.0542 16.0498 4.72577 16.0498 5.5542V14.0542C16.0498 14.8826 15.3782 15.5542 14.5498 15.5542H9.0498C8.22137 15.5542 7.5498 14.8826 7.5498 14.0542V5.5542Z" fill="#6B786F"/>
<path d="M3.94922 6.98323C3.94922 6.15152 4.70774 5.47729 5.64344 5.47729H11.8556C12.7913 5.47729 13.5498 6.15152 13.5498 6.98323V15.5169C13.5498 16.3485 12.7913 17.0228 11.8556 17.0228H5.64344C4.70774 17.0228 3.94922 16.3485 3.94922 15.5169V6.98323Z" fill="#E7EAE8"/>
<path fill-rule="evenodd" clip-rule="evenodd" d="M5.66731 8.4502C5.66731 8.10502 5.99784 7.8252 6.40556 7.8252H11.1303C11.538 7.8252 11.8686 8.10502 11.8686 8.4502C11.8686 8.79538 11.538 9.0752 11.1303 9.0752H6.40556C5.99784 9.0752 5.66731 8.79538 5.66731 8.4502ZM5.66789 10.9502C5.66789 10.605 5.99841 10.3252 6.40613 10.3252H11.1309C11.5386 10.3252 11.8691 10.605 11.8691 10.9502C11.8691 11.2954 11.5386 11.5752 11.1309 11.5752H6.40613C5.99841 11.5752 5.66789 11.2954 5.66789 10.9502ZM6.40524 12.8252C5.99751 12.8252 5.66699 13.105 5.66699 13.4502C5.66699 13.7954 5.99751 14.0752 6.40524 14.0752H8.76762C9.17534 14.0752 9.50586 13.7954 9.50586 13.4502C9.50586 13.105 9.17534 12.8252 8.76762 12.8252H6.40524Z" fill="#6B786F"/>
</svg>
