<svg width="24" height="24" viewBox="0 0 24 24" fill="none" xmlns="http://www.w3.org/2000/svg">
<path fill-rule="evenodd" clip-rule="evenodd" d="M12 22C17.5228 22 22 17.5228 22 12C22 6.47715 17.5228 2 12 2C6.47715 2 2 6.47715 2 12C2 17.5228 6.47715 22 12 22ZM13 6.16797C13 5.61568 12.5523 5.16797 12 5.16797C11.4477 5.16797 11 5.61568 11 6.16797V12.168C11 12.5467 11.214 12.893 11.5528 13.0624L15.5528 15.0624C16.0468 15.3094 16.6474 15.1092 16.8944 14.6152C17.1414 14.1212 16.9412 13.5205 16.4472 13.2735L13 11.5499V6.16797Z" fill="#272121"/>
</svg>
